<svg width="128" height="160" viewBox="0 0 128 160" fill="none" xmlns="http://www.w3.org/2000/svg">
<rect x="26" y="42" width="76" height="76" rx="38" fill="white" stroke="url(#paint0_linear_3507_1687)" stroke-width="4"/>
<path d="M83.9913 72.4092C83.9837 72.3142 83.9652 72.2232 83.9353 72.1367C83.9307 72.1234 83.9283 72.1101 83.9232 72.0969C83.8851 71.9991 83.832 71.9103 83.7693 71.8288C83.763 71.8205 83.7607 71.8104 83.7541 71.8022L76.1125 62.3956C75.9092 62.1449 75.6065 62 75.287 62H52.713C52.3936 62 52.0908 62.1449 51.8875 62.3956L44.2459 71.8022C44.2393 71.8104 44.237 71.8205 44.2307 71.8288C44.168 71.9103 44.1149 71.9991 44.0769 72.0969C44.0718 72.1101 44.0693 72.1234 44.0647 72.1367C44.0348 72.2232 44.0163 72.3142 44.0087 72.4092C44.0072 72.4278 44.0039 72.4454 44.0033 72.4641C44.003 72.4754 44 72.4861 44 72.4975C44 72.5901 44.0148 72.6787 44.0362 72.7647C44.0409 72.7835 44.0473 72.8011 44.053 72.8197C44.0846 72.9231 44.1263 73.0219 44.1848 73.1095L63.1134 101.521C63.1173 101.527 63.1228 101.531 63.1267 101.537C63.1418 101.559 63.1611 101.576 63.1778 101.596C63.2266 101.657 63.2793 101.712 63.3388 101.76C63.3648 101.781 63.3917 101.799 63.4195 101.817C63.4798 101.857 63.5429 101.89 63.6099 101.917C63.6389 101.928 63.6663 101.941 63.6964 101.95C63.7943 101.98 63.8953 102 64 102C64.1047 102 64.2057 101.98 64.3036 101.95C64.3337 101.941 64.3611 101.928 64.3901 101.917C64.4571 101.89 64.5202 101.857 64.5805 101.817C64.6083 101.799 64.6352 101.781 64.6612 101.76C64.7207 101.712 64.7734 101.657 64.8222 101.596C64.8389 101.576 64.8582 101.559 64.8733 101.537C64.8772 101.531 64.8827 101.527 64.8866 101.521L83.8152 73.1096C83.8737 73.022 83.9154 72.9231 83.947 72.8197C83.9526 72.8011 83.9591 72.7835 83.9638 72.7647C83.9852 72.6787 84 72.5901 84 72.4975C84 72.4861 83.997 72.4755 83.9967 72.4641C83.9961 72.4455 83.9928 72.4278 83.9913 72.4092ZM74.7827 64.1816L80.6521 71.4067H73.7328L70.9411 64.1816H74.7827ZM59.3617 64.1816H68.6383L71.43 71.4067H56.57L59.3617 64.1816ZM53.2174 64.1816H57.0589L54.2672 71.4067H47.3479L53.2174 64.1816ZM47.093 73.5883H54.2168L60.6785 93.9805L47.093 73.5883ZM64 97.3563L56.4687 73.5883H71.5314L64 97.3563ZM67.3215 93.9805L73.7832 73.5883H80.9071L67.3215 93.9805Z" fill="url(#paint1_linear_3507_1687)"/>
<defs>
<linearGradient id="paint0_linear_3507_1687" x1="64" y1="40" x2="64" y2="120" gradientUnits="userSpaceOnUse">
<stop stop-color="#D0A200"/>
<stop offset="0.525" stop-color="#FFE482" stop-opacity="0.964"/>
<stop offset="1" stop-color="#E2B926" stop-opacity="0.88"/>
</linearGradient>
<linearGradient id="paint1_linear_3507_1687" x1="64" y1="62" x2="64" y2="102" gradientUnits="userSpaceOnUse">
<stop stop-color="#FFC700"/>
<stop offset="0.525" stop-color="#FFCE20" stop-opacity="0.964"/>
<stop offset="1" stop-color="#E2B926" stop-opacity="0.88"/>
</linearGradient>
</defs>
</svg>
