<svg width="31" height="31" viewBox="0 0 31 31" fill="none" xmlns="http://www.w3.org/2000/svg">
<path d="M30.2439 8.31707C30.2439 3.72368 26.5202 0 21.9268 0H8.31707C3.72368 0 0 3.72368 0 8.31707V22.6829C0 27.2763 3.72368 31 8.31707 31H21.9268C26.5202 31 30.2439 27.2763 30.2439 22.6829V8.31707Z" fill="url(#paint0_linear_1395_854)"/>
<path fill-rule="evenodd" clip-rule="evenodd" d="M12.2526 12.911C12.1408 12.9579 12.064 13.0429 12.0263 13.1405C11.9831 13.1674 11.9451 13.2022 11.9145 13.2436C11.8805 13.2893 11.8558 13.3431 11.8436 13.4039L10.4052 20.6647C10.3425 20.9817 10.6703 21.2359 10.9767 21.1078L17.9965 18.1742C18.016 18.166 18.0344 18.1567 18.0517 18.1464C18.0717 18.1345 18.0902 18.1212 18.1072 18.1067C18.1604 18.0618 18.1992 18.0057 18.2228 17.9447C18.3132 17.888 18.3823 17.7972 18.4055 17.6813L19.8439 10.4205C19.886 10.2083 19.7531 10.0241 19.5685 9.96406C19.4773 9.93443 19.3736 9.93498 19.2724 9.97735L12.2526 12.911ZM19.2964 10.5144L12.6702 13.2838L14.3499 13.9999C14.6685 13.7552 15.0673 13.6098 15.5 13.6098C16.544 13.6098 17.3903 14.4561 17.3903 15.5C17.3903 15.7628 17.3366 16.013 17.2398 16.2404L17.9385 17.3684L19.2964 10.5144ZM13.9574 14.4074C13.7385 14.7159 13.6098 15.0929 13.6098 15.5C13.6098 16.544 14.4561 17.3903 15.5 17.3903C16.0782 17.3903 16.5957 17.1307 16.9424 16.7217L17.5789 17.8015L10.9527 20.5707L12.3106 13.7168L13.9574 14.4074Z" fill="white"/>
<path fill-rule="evenodd" clip-rule="evenodd" d="M26.4634 15.5C26.4634 15.5999 26.462 15.6995 26.4594 15.7987C26.462 15.8248 26.4634 15.8512 26.4634 15.8781C26.4634 15.9246 26.4594 15.9696 26.4513 16.0139C26.1736 21.8303 21.2073 26.4634 15.122 26.4634C9.03665 26.4634 4.07033 21.8303 3.7927 16.0139C3.78458 15.9696 3.78052 15.9246 3.78052 15.8781C3.78052 15.8512 3.78199 15.8248 3.78458 15.7987C3.78368 15.7638 3.78289 15.7289 3.78227 15.694L3.78128 15.6275C3.78077 15.585 3.78052 15.5426 3.78052 15.5C3.78052 9.44507 8.85833 4.53662 15.122 4.53662C21.3856 4.53662 26.4634 9.44507 26.4634 15.5ZM21.9269 15.122H25.6099C25.4135 9.93766 21.1929 5.74645 15.8781 5.38068V9.07321C15.8781 9.49076 15.5395 9.8293 15.122 9.8293C14.7044 9.8293 14.3659 9.49076 14.3659 9.07321V5.38068C9.05105 5.74645 4.83049 9.93766 4.63408 15.122H8.3171C8.73465 15.122 9.0732 15.4605 9.0732 15.8781C9.0732 16.2956 8.73465 16.6342 8.3171 16.6342H4.69204C5.24804 21.4647 9.31207 25.2716 14.3659 25.6194V21.9269C14.3659 21.5093 14.7044 21.1708 15.122 21.1708C15.5395 21.1708 15.8781 21.5093 15.8781 21.9269V25.6194C20.9319 25.2716 24.9959 21.4647 25.5519 16.6342H21.9269C21.5093 16.6342 21.1708 16.2956 21.1708 15.8781C21.1708 15.4605 21.5093 15.122 21.9269 15.122Z" fill="white"/>
<defs>
<linearGradient id="paint0_linear_1395_854" x1="15.122" y1="0" x2="15.122" y2="31" gradientUnits="userSpaceOnUse">
<stop stop-color="#F65F51"/>
<stop offset="1" stop-color="#FB4967"/>
</linearGradient>
</defs>
</svg>
