<svg width="103" height="14" viewBox="0 0 103 14" fill="none" xmlns="http://www.w3.org/2000/svg">
<g id="Group 288906">
<path id="Vector" d="M12.0592 13.9601C11.5255 14.3326 8.10139 11.9714 7.44559 11.9663C6.78979 11.9611 3.3271 14.268 2.79968 13.8871C2.27225 13.5063 3.5122 9.59442 3.3146 8.98338C3.117 8.37235 -0.198314 5.86715 0.00935901 5.25929C0.217078 4.65143 4.40754 4.59497 4.94119 4.22248C5.47485 3.85004 6.88859 -0.00513974 7.54444 5.14486e-06C8.20019 0.00519477 9.55007 3.88216 10.0775 4.26302C10.6049 4.64383 14.794 4.76641 14.9916 5.37744C15.1892 5.98848 11.833 8.44107 11.6253 9.04892C11.4176 9.65678 12.5928 13.5877 12.0592 13.9601Z" fill="url(#paint0_linear_1601_1034)"/>
<path id="Vector_2" d="M34.0592 13.9601C33.5255 14.3326 30.1014 11.9714 29.4456 11.9663C28.7898 11.9611 25.3271 14.268 24.7997 13.8871C24.2723 13.5063 25.5122 9.59442 25.3146 8.98338C25.117 8.37235 21.8017 5.86715 22.0094 5.25929C22.2171 4.65143 26.4075 4.59497 26.9412 4.22248C27.4748 3.85004 28.8886 -0.00513974 29.5444 5.14486e-06C30.2002 0.00519477 31.5501 3.88216 32.0775 4.26302C32.6049 4.64383 36.794 4.76641 36.9916 5.37744C37.1892 5.98848 33.833 8.44107 33.6253 9.04892C33.4176 9.65678 34.5928 13.5877 34.0592 13.9601Z" fill="url(#paint1_linear_1601_1034)"/>
<path id="Vector_3" d="M56.0592 13.9601C55.5255 14.3326 52.1014 11.9714 51.4456 11.9663C50.7898 11.9611 47.3271 14.268 46.7997 13.8871C46.2723 13.5063 47.5122 9.59442 47.3146 8.98338C47.117 8.37235 43.8017 5.86715 44.0094 5.25929C44.2171 4.65143 48.4075 4.59497 48.9412 4.22248C49.4748 3.85004 50.8886 -0.00513974 51.5444 5.14486e-06C52.2002 0.00519477 53.5501 3.88216 54.0775 4.26302C54.6049 4.64383 58.794 4.76641 58.9916 5.37744C59.1892 5.98848 55.833 8.44107 55.6253 9.04892C55.4176 9.65678 56.5928 13.5877 56.0592 13.9601Z" fill="url(#paint2_linear_1601_1034)"/>
<path id="Vector_4" d="M78.0592 13.9601C77.5255 14.3326 74.1014 11.9714 73.4456 11.9663C72.7898 11.9611 69.3271 14.268 68.7997 13.8871C68.2723 13.5063 69.5122 9.59442 69.3146 8.98338C69.117 8.37235 65.8017 5.86715 66.0094 5.25929C66.2171 4.65143 70.4075 4.59497 70.9412 4.22248C71.4748 3.85004 72.8886 -0.00513974 73.5444 5.14486e-06C74.2002 0.00519477 75.5501 3.88216 76.0775 4.26302C76.6049 4.64383 80.794 4.76641 80.9916 5.37744C81.1892 5.98848 77.833 8.44107 77.6253 9.04892C77.4176 9.65678 78.5928 13.5877 78.0592 13.9601Z" fill="url(#paint3_linear_1601_1034)"/>
<path id="Vector_5" d="M100.059 13.9601C99.5255 14.3326 96.1014 11.9714 95.4456 11.9663C94.7898 11.9611 91.3271 14.268 90.7997 13.8871C90.2723 13.5063 91.5122 9.59442 91.3146 8.98338C91.117 8.37235 87.8017 5.86715 88.0094 5.25929C88.2171 4.65143 92.4075 4.59497 92.9412 4.22248C93.4748 3.85004 94.8886 -0.00513974 95.5444 5.14486e-06C96.2002 0.00519477 97.5501 3.88216 98.0775 4.26302C98.6049 4.64383 102.794 4.76641 102.992 5.37744C103.189 5.98848 99.833 8.44107 99.6253 9.04892C99.4176 9.65678 100.593 13.5877 100.059 13.9601Z" fill="#D9D9D9"/>
</g>
<defs>
<linearGradient id="paint0_linear_1601_1034" x1="1.92e-05" y1="7.00001" x2="15" y2="7.00001" gradientUnits="userSpaceOnUse">
<stop stop-color="#FCD635"/>
<stop offset="1" stop-color="#F7A928"/>
</linearGradient>
<linearGradient id="paint1_linear_1601_1034" x1="22" y1="7.00001" x2="37" y2="7.00001" gradientUnits="userSpaceOnUse">
<stop stop-color="#FCD635"/>
<stop offset="1" stop-color="#F7A928"/>
</linearGradient>
<linearGradient id="paint2_linear_1601_1034" x1="44" y1="7.00001" x2="59" y2="7.00001" gradientUnits="userSpaceOnUse">
<stop stop-color="#FCD635"/>
<stop offset="1" stop-color="#F7A928"/>
</linearGradient>
<linearGradient id="paint3_linear_1601_1034" x1="66" y1="7.00001" x2="81" y2="7.00001" gradientUnits="userSpaceOnUse">
<stop stop-color="#FCD635"/>
<stop offset="1" stop-color="#F7A928"/>
</linearGradient>
</defs>
</svg>
