<svg width="103" height="15" viewBox="0 0 103 15" fill="none" xmlns="http://www.w3.org/2000/svg">
<g id="Group 288906">
<path id="Vector" d="M12.0592 14.4601C11.5255 14.8326 8.10139 12.4714 7.44559 12.4663C6.78979 12.4611 3.3271 14.768 2.79968 14.3871C2.27225 14.0063 3.5122 10.0944 3.3146 9.48338C3.117 8.87235 -0.198314 6.36715 0.00935901 5.75929C0.217078 5.15143 4.40754 5.09497 4.94119 4.72248C5.47485 4.35004 6.88859 0.49486 7.54444 0.500005C8.20019 0.505195 9.55007 4.38216 10.0775 4.76302C10.6049 5.14383 14.794 5.26641 14.9916 5.87744C15.1892 6.48848 11.833 8.94107 11.6253 9.54892C11.4176 10.1568 12.5928 14.0877 12.0592 14.4601Z" fill="url(#paint0_linear_1601_1055)"/>
<path id="Vector_2" d="M34.0592 14.4601C33.5255 14.8326 30.1014 12.4714 29.4456 12.4663C28.7898 12.4611 25.3271 14.768 24.7997 14.3871C24.2723 14.0063 25.5122 10.0944 25.3146 9.48338C25.117 8.87235 21.8017 6.36715 22.0094 5.75929C22.2171 5.15143 26.4075 5.09497 26.9412 4.72248C27.4748 4.35004 28.8886 0.49486 29.5444 0.500005C30.2002 0.505195 31.5501 4.38216 32.0775 4.76302C32.6049 5.14383 36.794 5.26641 36.9916 5.87744C37.1892 6.48848 33.833 8.94107 33.6253 9.54892C33.4176 10.1568 34.5928 14.0877 34.0592 14.4601Z" fill="url(#paint1_linear_1601_1055)"/>
<path id="Vector_3" d="M56.0592 14.4601C55.5255 14.8326 52.1014 12.4714 51.4456 12.4663C50.7898 12.4611 47.3271 14.768 46.7997 14.3871C46.2723 14.0063 47.5122 10.0944 47.3146 9.48338C47.117 8.87235 43.8017 6.36715 44.0094 5.75929C44.2171 5.15143 48.4075 5.09497 48.9412 4.72248C49.4748 4.35004 50.8886 0.49486 51.5444 0.500005C52.2002 0.505195 53.5501 4.38216 54.0775 4.76302C54.6049 5.14383 58.794 5.26641 58.9916 5.87744C59.1892 6.48848 55.833 8.94107 55.6253 9.54892C55.4176 10.1568 56.5928 14.0877 56.0592 14.4601Z" fill="url(#paint2_linear_1601_1055)"/>
<path id="Vector_4" d="M78.0592 14.4601C77.5255 14.8326 74.1014 12.4714 73.4456 12.4663C72.7898 12.4611 69.3271 14.768 68.7997 14.3871C68.2723 14.0063 69.5122 10.0944 69.3146 9.48338C69.117 8.87235 65.8017 6.36715 66.0094 5.75929C66.2171 5.15143 70.4075 5.09497 70.9412 4.72248C71.4748 4.35004 72.8886 0.49486 73.5444 0.500005C74.2002 0.505195 75.5501 4.38216 76.0775 4.76302C76.6049 5.14383 80.794 5.26641 80.9916 5.87744C81.1892 6.48848 77.833 8.94107 77.6253 9.54892C77.4176 10.1568 78.5928 14.0877 78.0592 14.4601Z" fill="url(#paint3_linear_1601_1055)"/>
<path id="Vector_5" d="M100.059 14.4601C99.5255 14.8326 96.1014 12.4714 95.4456 12.4663C94.7898 12.4611 91.3271 14.768 90.7997 14.3871C90.2723 14.0063 91.5122 10.0944 91.3146 9.48338C91.117 8.87235 87.8017 6.36715 88.0094 5.75929C88.2171 5.15143 92.4075 5.09497 92.9412 4.72248C93.4748 4.35004 94.8886 0.49486 95.5444 0.500005C96.2002 0.505195 97.5501 4.38216 98.0775 4.76302C98.6049 5.14383 102.794 5.26641 102.992 5.87744C103.189 6.48848 99.833 8.94107 99.6253 9.54892C99.4176 10.1568 100.593 14.0877 100.059 14.4601Z" fill="url(#paint4_linear_1601_1055)"/>
</g>
<defs>
<linearGradient id="paint0_linear_1601_1055" x1="1.92e-05" y1="7.50001" x2="15" y2="7.50001" gradientUnits="userSpaceOnUse">
<stop stop-color="#FCD635"/>
<stop offset="1" stop-color="#F7A928"/>
</linearGradient>
<linearGradient id="paint1_linear_1601_1055" x1="22" y1="7.50001" x2="37" y2="7.50001" gradientUnits="userSpaceOnUse">
<stop stop-color="#FCD635"/>
<stop offset="1" stop-color="#F7A928"/>
</linearGradient>
<linearGradient id="paint2_linear_1601_1055" x1="44" y1="7.50001" x2="59" y2="7.50001" gradientUnits="userSpaceOnUse">
<stop stop-color="#FCD635"/>
<stop offset="1" stop-color="#F7A928"/>
</linearGradient>
<linearGradient id="paint3_linear_1601_1055" x1="66" y1="7.50001" x2="81" y2="7.50001" gradientUnits="userSpaceOnUse">
<stop stop-color="#FCD635"/>
<stop offset="1" stop-color="#F7A928"/>
</linearGradient>
<linearGradient id="paint4_linear_1601_1055" x1="88" y1="7.50001" x2="103" y2="7.50001" gradientUnits="userSpaceOnUse">
<stop stop-color="#FCD635"/>
<stop offset="1" stop-color="#F7A928"/>
</linearGradient>
</defs>
</svg>
