<svg width="40" height="41" viewBox="0 0 40 41" fill="none" xmlns="http://www.w3.org/2000/svg">
<rect y="0.941406" width="40" height="40" rx="20" fill="url(#paint0_linear_307_690)"/>
<path fill-rule="evenodd" clip-rule="evenodd" d="M11.8065 15.148C12.7066 14.2481 13.9273 13.7426 15.2001 13.7426C16.4729 13.7426 17.6936 14.2481 18.5937 15.148L20.0001 16.5532L21.4065 15.148C21.8493 14.6896 22.3789 14.3239 22.9646 14.0723C23.5502 13.8208 24.18 13.6883 24.8174 13.6828C25.4547 13.6773 26.0868 13.7987 26.6767 14.0401C27.2666 14.2814 27.8025 14.6378 28.2532 15.0885C28.7039 15.5392 29.0603 16.0751 29.3016 16.665C29.543 17.2549 29.6644 17.887 29.6589 18.5243C29.6534 19.1617 29.5209 19.7915 29.2694 20.3771C29.0178 20.9628 28.6521 21.4924 28.1937 21.9352L20.0001 30.13L11.8065 21.9352C10.9066 21.0351 10.4011 19.8144 10.4011 18.5416C10.4011 17.2688 10.9066 16.0481 11.8065 15.148Z" fill="white" stroke="white" stroke-width="2" stroke-linejoin="round"/>
<defs>
<linearGradient id="paint0_linear_307_690" x1="20" y1="0.941406" x2="20" y2="40.9414" gradientUnits="userSpaceOnUse">
<stop stop-color="#F65F51"/>
<stop offset="1" stop-color="#FB4967"/>
</linearGradient>
</defs>
</svg>
