<svg width="64" height="80" viewBox="0 0 64 80" fill="none" xmlns="http://www.w3.org/2000/svg">
<rect x="13" y="21" width="38" height="38" rx="19" fill="#080700" stroke="#E2B926" stroke-width="2"/>
<path d="M41.9956 36.2046C41.9918 36.1571 41.9826 36.1116 41.9676 36.0684C41.9653 36.0617 41.9641 36.055 41.9616 36.0485C41.9425 35.9996 41.916 35.9552 41.8847 35.9144C41.8815 35.9103 41.8804 35.9052 41.8771 35.9011L38.0563 31.1978C37.9546 31.0724 37.8032 31 37.6435 31H26.3565C26.1968 31 26.0454 31.0724 25.9437 31.1978L22.1229 35.9011C22.1197 35.9052 22.1185 35.9103 22.1153 35.9144C22.084 35.9552 22.0575 35.9996 22.0384 36.0485C22.0359 36.055 22.0347 36.0617 22.0324 36.0684C22.0174 36.1116 22.0082 36.1571 22.0044 36.2046C22.0036 36.2139 22.0019 36.2227 22.0017 36.232C22.0015 36.2377 22 36.2431 22 36.2487C22 36.2951 22.0074 36.3394 22.0181 36.3823C22.0204 36.3917 22.0237 36.4006 22.0265 36.4098C22.0423 36.4616 22.0631 36.511 22.0924 36.5548L31.5567 50.7607C31.5586 50.7636 31.5614 50.7656 31.5633 50.7684C31.5709 50.7793 31.5806 50.7879 31.5889 50.7982C31.6133 50.8285 31.6397 50.8561 31.6694 50.88C31.6824 50.8905 31.6958 50.8994 31.7098 50.9086C31.7399 50.9286 31.7715 50.9449 31.8049 50.9583C31.8195 50.9641 31.8331 50.9707 31.8482 50.9752C31.8971 50.99 31.9477 51 32 51C32.0523 51 32.1029 50.99 32.1518 50.9752C32.1669 50.9707 32.1805 50.9641 32.1951 50.9583C32.2285 50.9449 32.2601 50.9286 32.2902 50.9086C32.3042 50.8994 32.3176 50.8905 32.3306 50.88C32.3603 50.8561 32.3867 50.8285 32.4111 50.7982C32.4194 50.7879 32.4291 50.7793 32.4367 50.7684C32.4386 50.7656 32.4414 50.7636 32.4433 50.7607L41.9076 36.5548C41.9368 36.511 41.9577 36.4616 41.9735 36.4098C41.9763 36.4006 41.9796 36.3917 41.9819 36.3823C41.9926 36.3394 42 36.2951 42 36.2487C42 36.2431 41.9985 36.2377 41.9983 36.232C41.9981 36.2227 41.9964 36.2139 41.9956 36.2046ZM37.3913 32.0908L40.326 35.7033H36.8664L35.4705 32.0908H37.3913ZM29.6808 32.0908H34.3192L35.715 35.7033H28.285L29.6808 32.0908ZM26.6087 32.0908H28.5295L27.1336 35.7033H23.674L26.6087 32.0908ZM23.5465 36.7941H27.1084L30.3392 46.9903L23.5465 36.7941ZM32 48.6782L28.2343 36.7941H35.7657L32 48.6782ZM33.6608 46.9903L36.8916 36.7941H40.4535L33.6608 46.9903Z" fill="#E2B926"/>
</svg>
