<svg width="152" height="21" viewBox="0 0 152 21" fill="none" xmlns="http://www.w3.org/2000/svg">
<g id="ratings">
<path id="Vector" d="M17.3186 20.6189C16.5522 21.1648 11.6347 17.7045 10.6929 17.6969C9.75107 17.6893 4.77817 21.0701 4.02072 20.5119C3.26326 19.9538 5.044 14.2209 4.76022 13.3254C4.47644 12.4299 -0.284807 8.75854 0.0134408 7.86771C0.311754 6.97689 6.32984 6.89415 7.09624 6.34826C7.86263 5.80244 9.89296 0.152624 10.8349 0.160164C11.7766 0.167769 13.7152 5.84951 14.4727 6.40766C15.2301 6.96575 21.2462 7.14539 21.53 8.04087C21.8138 8.93635 16.9938 12.5307 16.6955 13.4215C16.3973 14.3123 18.085 20.0731 17.3186 20.6189Z" fill="url(#paint0_linear_1601_1004)"/>
<path id="Vector_2" d="M49.8821 20.5789C49.1157 21.1248 44.1982 17.6644 43.2564 17.6568C42.3145 17.6493 37.3417 21.03 36.5842 20.4719C35.8267 19.9137 37.6075 14.1809 37.3237 13.2854C37.0399 12.3899 32.2787 8.7185 32.5769 7.82768C32.8752 6.93685 38.8933 6.85411 39.6597 6.30822C40.4261 5.7624 42.4564 0.112585 43.3983 0.120125C44.3401 0.12773 46.2787 5.80947 47.0361 6.36762C47.7936 6.92571 53.8096 7.10535 54.0935 8.00083C54.3773 8.89631 49.5573 12.4906 49.259 13.3814C48.9607 14.2723 50.6485 20.033 49.8821 20.5789Z" fill="url(#paint1_linear_1601_1004)"/>
<path id="Vector_3" d="M82.4456 20.5389C81.6792 21.0848 76.7617 17.6244 75.8198 17.6168C74.878 17.6092 69.9051 20.99 69.1477 20.4319C68.3902 19.8737 70.171 14.1408 69.8872 13.2453C69.6034 12.3499 64.8421 8.67846 65.1404 7.78764C65.4387 6.89681 71.4568 6.81407 72.2232 6.26818C72.9896 5.72236 75.0199 0.0725458 75.9618 0.0800857C76.9036 0.0876911 78.8422 5.76944 79.5996 6.32759C80.3571 6.88567 86.3731 7.06531 86.657 7.96079C86.9408 8.85627 82.1208 12.4506 81.8225 13.3414C81.5242 14.2322 83.212 19.993 82.4456 20.5389Z" fill="url(#paint2_linear_1601_1004)"/>
<path id="Vector_4" d="M115.009 20.4988C114.243 21.0447 109.325 17.5843 108.383 17.5767C107.441 17.5692 102.469 20.95 101.711 20.3918C100.954 19.8337 102.734 14.1008 102.451 13.2053C102.167 12.3098 97.4056 8.63842 97.7039 7.7476C98.0022 6.85677 104.02 6.77403 104.787 6.22814C105.553 5.68232 107.583 0.0325067 108.525 0.0400466C109.467 0.0476521 111.406 5.7294 112.163 6.28755C112.921 6.84563 118.937 7.02527 119.22 7.92075C119.504 8.81623 114.684 12.4105 114.386 13.3014C114.088 14.1922 115.775 19.9529 115.009 20.4988Z" fill="#D9D9D9"/>
<path id="Vector_5" d="M147.573 20.4588C146.806 21.0047 141.889 17.5443 140.947 17.5367C140.005 17.5292 135.032 20.9099 134.275 20.3518C133.517 19.7936 135.298 14.0607 135.014 13.1653C134.73 12.2698 129.969 8.59838 130.267 7.70756C130.566 6.81674 136.584 6.73399 137.35 6.18811C138.117 5.64228 140.147 -0.00753236 141.089 7.53986e-06C142.031 0.00761301 143.969 5.68936 144.727 6.24751C145.484 6.80559 151.5 6.98524 151.784 7.88071C152.068 8.77619 147.248 12.3705 146.949 13.2613C146.651 14.1521 148.339 19.9129 147.573 20.4588Z" fill="#D9D9D9"/>
</g>
<defs>
<linearGradient id="paint0_linear_1601_1004" x1="2.75738e-05" y1="10.4188" x2="21.5421" y2="10.4188" gradientUnits="userSpaceOnUse">
<stop stop-color="#FCD635"/>
<stop offset="1" stop-color="#F7A928"/>
</linearGradient>
<linearGradient id="paint1_linear_1601_1004" x1="32.5635" y1="10.3787" x2="54.1055" y2="10.3787" gradientUnits="userSpaceOnUse">
<stop stop-color="#FCD635"/>
<stop offset="1" stop-color="#F7A928"/>
</linearGradient>
<linearGradient id="paint2_linear_1601_1004" x1="65.127" y1="10.3387" x2="86.669" y2="10.3387" gradientUnits="userSpaceOnUse">
<stop stop-color="#FCD635"/>
<stop offset="1" stop-color="#F7A928"/>
</linearGradient>
</defs>
</svg>
