<svg width="238" height="46" viewBox="0 0 238 46" fill="none" xmlns="http://www.w3.org/2000/svg">
<path d="M32.8705 13.95C32.8705 15.55 32.5038 17.0667 31.7705 18.5C31.0705 19.9 30.0872 21.1667 28.8205 22.3C27.5538 23.4 26.0705 24.3333 24.3705 25.1C22.6705 25.8667 20.8205 26.3833 18.8205 26.65C19.3205 28.15 19.9205 29.7 20.6205 31.3C21.3538 32.8667 22.1372 34.3833 22.9705 35.85C23.8038 37.3167 24.6705 38.6667 25.5705 39.9C26.4705 41.1333 27.3538 42.15 28.2205 42.95C28.0538 43.2833 27.8038 43.6167 27.4705 43.95C27.1705 44.2833 26.8038 44.5833 26.3705 44.85C25.9705 45.15 25.5372 45.3833 25.0705 45.55C24.6372 45.75 24.2205 45.85 23.8205 45.85C23.0872 45.85 22.3872 45.5 21.7205 44.8C21.0538 44.1 20.3705 43 19.6705 41.5C19.0038 39.9667 18.2872 38 17.5205 35.6C16.7872 33.1667 15.9705 30.25 15.0705 26.85C14.7038 26.85 14.3372 26.85 13.9705 26.85C13.6038 26.85 13.3205 26.8167 13.1205 26.75C12.8872 26.6167 12.6372 26.3833 12.3705 26.05C11.4705 27.9833 10.6705 29.8 9.97051 31.5C9.27051 33.2 8.63718 34.85 8.07051 36.45C7.53718 38.0167 7.05384 39.55 6.62051 41.05C6.22051 42.5167 5.87051 44.0167 5.57051 45.55C4.43717 45.2833 3.45384 44.8 2.62051 44.1C1.78717 43.4 1.00384 42.4167 0.270508 41.15C0.403841 40.85 0.537174 40.5667 0.670508 40.3C0.837174 40 1.03717 39.6 1.27051 39.1C1.50384 38.5667 1.78717 37.9 2.12051 37.1C2.48717 36.3 2.95384 35.2333 3.52051 33.9C4.12051 32.5667 4.82051 30.9333 5.62051 29C6.45384 27.0667 7.45384 24.7167 8.62051 21.95C9.15384 20.7167 9.60384 19.6333 9.97051 18.7C10.3705 17.7667 10.7205 16.8833 11.0205 16.05C11.3205 15.1833 11.5872 14.3333 11.8205 13.5C12.0872 12.6333 12.3538 11.65 12.6205 10.55C11.0872 11.0833 9.65384 11.6833 8.32051 12.35C7.02051 12.9833 5.93717 13.6667 5.07051 14.4C4.77051 14.2 4.45384 13.9 4.12051 13.5C3.82051 13.1 3.53717 12.6667 3.27051 12.2C3.00384 11.7 2.77051 11.2 2.57051 10.7C2.37051 10.2 2.25384 9.75 2.22051 9.35C3.22051 8.68333 4.43717 8.06667 5.87051 7.5C7.33718 6.93333 8.88718 6.45 10.5205 6.05C12.1538 5.61667 13.8205 5.28333 15.5205 5.05C17.2205 4.81667 18.8038 4.7 20.2705 4.7C24.2705 4.7 27.3705 5.53333 29.5705 7.2C31.7705 8.83333 32.8705 11.0833 32.8705 13.95ZM20.6705 9.75C20.4372 10.05 20.0705 10.65 19.5705 11.55C19.0705 12.45 18.4872 13.5333 17.8205 14.8C17.1872 16.0333 16.5038 17.3833 15.7705 18.85C15.0705 20.3167 14.3872 21.7667 13.7205 23.2C16.2205 23.2 18.5205 22.9667 20.6205 22.5C22.7205 22.0333 24.5372 21.3833 26.0705 20.55C27.6038 19.6833 28.7872 18.6833 29.6205 17.55C30.4872 16.3833 30.9205 15.1 30.9205 13.7C30.9205 12.0333 30.3205 10.7667 29.1205 9.9C27.9205 9 26.0705 8.55 23.5705 8.55C23.0038 8.55 22.4372 8.58333 21.8705 8.65C21.3038 8.68333 20.7038 8.73333 20.0705 8.8L20.6705 9.75Z" fill="#F94F60"/>
<path d="M49.0412 20.8C48.9079 22.8667 48.5412 24.65 47.9412 26.15C47.3412 27.6167 46.4745 28.9167 45.3412 30.05C44.2412 31.15 42.8912 32.15 41.2912 33.05C39.6912 33.95 37.8245 34.8167 35.6912 35.65C35.6912 35.85 35.6745 36.0667 35.6412 36.3C35.6412 36.5 35.6412 36.7167 35.6412 36.95C35.6412 37.3833 35.6745 37.8333 35.7412 38.3C35.8079 38.7667 35.9245 39.2 36.0912 39.6C36.2579 40 36.4912 40.3333 36.7912 40.6C37.0912 40.8333 37.4745 40.95 37.9412 40.95C38.8412 40.95 39.7245 40.75 40.5912 40.35C41.4579 39.95 42.2745 39.4667 43.0412 38.9C43.8412 38.3 44.5745 37.6667 45.2412 37C45.9412 36.3 46.5579 35.6667 47.0912 35.1C47.4245 35.4 47.7079 35.6833 47.9412 35.95C46.4412 37.95 44.7912 39.6167 42.9912 40.95C41.2245 42.25 39.5412 43.0833 37.9412 43.45C35.6412 43.1833 33.8412 42.35 32.5412 40.95C31.2745 39.5167 30.6412 37.8 30.6412 35.8C30.6412 34.4333 30.8245 33.05 31.1912 31.65C31.5912 30.2167 32.1245 28.85 32.7912 27.55C33.4912 26.2167 34.2912 24.9667 35.1912 23.8C36.1245 22.6333 37.1079 21.6167 38.1412 20.75C39.2079 19.8833 40.2912 19.2 41.3912 18.7C42.5245 18.2 43.6412 17.95 44.7412 17.95C46.2745 18.15 47.7079 19.1 49.0412 20.8ZM45.5912 22.45C44.6912 22.5833 43.7579 22.95 42.7912 23.55C41.8245 24.15 40.9079 24.95 40.0412 25.95C39.2079 26.95 38.4412 28.1167 37.7412 29.45C37.0412 30.7833 36.4912 32.2167 36.0912 33.75C38.7579 32.4167 40.9745 30.7833 42.7412 28.85C44.5079 26.8833 45.4579 24.75 45.5912 22.45Z" fill="#F94F60"/>
<path d="M68.6061 21.3C68.9394 21.3 69.3227 21.3667 69.7561 21.5C70.2227 21.6 70.6394 21.75 71.0061 21.95C71.3727 22.1167 71.6727 22.3 71.9061 22.5C72.1727 22.7 72.3061 22.8833 72.3061 23.05C71.6394 24.45 71.0227 25.8667 70.4561 27.3C69.8894 28.7 69.4061 30.05 69.0061 31.35C68.6061 32.65 68.2894 33.8667 68.0561 35C67.8561 36.1333 67.7561 37.1167 67.7561 37.95C67.7561 38.8833 67.8561 39.6667 68.0561 40.3C68.2561 40.9 68.5894 41.3333 69.0561 41.6C68.6561 41.8667 68.1394 42.0833 67.5061 42.25C66.8727 42.4167 66.3061 42.5 65.8061 42.5C64.0061 42.5 63.1061 41.2667 63.1061 38.8C63.1061 36.9 63.7394 34.3 65.0061 31C64.3394 32.5333 63.5727 33.9833 62.7061 35.35C61.8394 36.6833 60.9561 37.8667 60.0561 38.9C59.1561 39.9333 58.2394 40.7833 57.3061 41.45C56.4061 42.0833 55.5727 42.4667 54.8061 42.6C53.5727 42.5333 52.5727 41.95 51.8061 40.85C51.0394 39.7167 50.6561 38.2833 50.6561 36.55C50.6561 34.6833 51.0561 32.7167 51.8561 30.65C52.6561 28.5833 53.6727 26.6667 54.9061 24.9C56.1727 23.1333 57.5394 21.6667 59.0061 20.5C60.4727 19.3 61.8894 18.6667 63.2561 18.6C63.5894 18.7 63.9561 18.9 64.3561 19.2C64.7894 19.5 65.1894 19.85 65.5561 20.25C65.9561 20.65 66.2894 21.0667 66.5561 21.5C66.8227 21.9 66.9727 22.25 67.0061 22.55C65.6727 22.75 64.2894 23.4 62.8561 24.5C61.4561 25.6 60.1727 26.9333 59.0061 28.5C57.8727 30.0333 56.9394 31.6833 56.2061 33.45C55.4727 35.2167 55.1061 36.8667 55.1061 38.4C55.1061 39.0333 55.3394 39.4333 55.8061 39.6C56.7727 39.4 57.8894 38.5833 59.1561 37.15C60.4227 35.6833 61.9561 33.4333 63.7561 30.4C64.0894 29.8 64.4561 29.1333 64.8561 28.4C65.2894 27.6667 65.7227 26.9 66.1561 26.1C66.5894 25.3 67.0061 24.5 67.4061 23.7C67.8394 22.8667 68.2394 22.0667 68.6061 21.3Z" fill="#F94F60"/>
<path d="M74.7924 38.3C74.7924 36.8333 75.1424 34.7833 75.8424 32.15C76.5424 29.4833 77.5257 26.3833 78.7924 22.85C80.859 17.2167 82.7924 12.5333 84.5924 8.8C86.4257 5.03333 88.209 2.1 89.9424 0C90.3424 0.0666658 90.8257 0.233332 91.3924 0.5C91.9924 0.766667 92.5757 1.06667 93.1424 1.4C93.7091 1.7 94.2091 2.01667 94.6424 2.35C95.1091 2.68333 95.409 2.95 95.5424 3.15C92.9424 6.21667 90.659 9.51667 88.6924 13.05C86.7257 16.5833 84.9257 20.6333 83.2924 25.2C81.8924 29.1333 80.8257 32.6833 80.0924 35.85C79.3591 38.9833 78.9924 41.6 78.9924 43.7C78.9924 44.2667 78.9924 44.6167 78.9924 44.75C78.9924 44.8833 79.009 45.0167 79.0424 45.15C78.5757 45.0833 78.1757 44.9667 77.8424 44.8C77.5091 44.6333 77.2924 44.4333 77.1924 44.2C77.1257 44.0333 76.9424 43.7833 76.6424 43.45C76.3424 43.15 76.0757 42.9167 75.8424 42.75C75.5424 42.55 75.2924 42.0333 75.0924 41.2C74.8924 40.3333 74.7924 39.3667 74.7924 38.3Z" fill="#F94F60"/>
<path d="M132.773 13.95C132.773 15.55 132.406 17.0667 131.673 18.5C130.973 19.9 129.99 21.1667 128.723 22.3C127.456 23.4 125.973 24.3333 124.273 25.1C122.573 25.8667 120.723 26.3833 118.723 26.65C119.223 28.15 119.823 29.7 120.523 31.3C121.256 32.8667 122.04 34.3833 122.873 35.85C123.706 37.3167 124.573 38.6667 125.473 39.9C126.373 41.1333 127.256 42.15 128.123 42.95C127.956 43.2833 127.706 43.6167 127.373 43.95C127.073 44.2833 126.706 44.5833 126.273 44.85C125.873 45.15 125.44 45.3833 124.973 45.55C124.54 45.75 124.123 45.85 123.723 45.85C122.99 45.85 122.29 45.5 121.623 44.8C120.956 44.1 120.273 43 119.573 41.5C118.906 39.9667 118.19 38 117.423 35.6C116.69 33.1667 115.873 30.25 114.973 26.85C114.606 26.85 114.24 26.85 113.873 26.85C113.506 26.85 113.223 26.8167 113.023 26.75C112.79 26.6167 112.54 26.3833 112.273 26.05C111.373 27.9833 110.573 29.8 109.873 31.5C109.173 33.2 108.54 34.85 107.973 36.45C107.44 38.0167 106.956 39.55 106.523 41.05C106.123 42.5167 105.773 44.0167 105.473 45.55C104.34 45.2833 103.356 44.8 102.523 44.1C101.69 43.4 100.906 42.4167 100.173 41.15C100.306 40.85 100.44 40.5667 100.573 40.3C100.74 40 100.94 39.6 101.173 39.1C101.406 38.5667 101.69 37.9 102.023 37.1C102.39 36.3 102.856 35.2333 103.423 33.9C104.023 32.5667 104.723 30.9333 105.523 29C106.356 27.0667 107.356 24.7167 108.523 21.95C109.056 20.7167 109.506 19.6333 109.873 18.7C110.273 17.7667 110.623 16.8833 110.923 16.05C111.223 15.1833 111.49 14.3333 111.723 13.5C111.99 12.6333 112.256 11.65 112.523 10.55C110.99 11.0833 109.556 11.6833 108.223 12.35C106.923 12.9833 105.84 13.6667 104.973 14.4C104.673 14.2 104.356 13.9 104.023 13.5C103.723 13.1 103.44 12.6667 103.173 12.2C102.906 11.7 102.673 11.2 102.473 10.7C102.273 10.2 102.156 9.75 102.123 9.35C103.123 8.68333 104.34 8.06667 105.773 7.5C107.24 6.93333 108.79 6.45 110.423 6.05C112.056 5.61667 113.723 5.28333 115.423 5.05C117.123 4.81667 118.706 4.7 120.173 4.7C124.173 4.7 127.273 5.53333 129.473 7.2C131.673 8.83333 132.773 11.0833 132.773 13.95ZM120.573 9.75C120.34 10.05 119.973 10.65 119.473 11.55C118.973 12.45 118.39 13.5333 117.723 14.8C117.09 16.0333 116.406 17.3833 115.673 18.85C114.973 20.3167 114.29 21.7667 113.623 23.2C116.123 23.2 118.423 22.9667 120.523 22.5C122.623 22.0333 124.44 21.3833 125.973 20.55C127.506 19.6833 128.69 18.6833 129.523 17.55C130.39 16.3833 130.823 15.1 130.823 13.7C130.823 12.0333 130.223 10.7667 129.023 9.9C127.823 9 125.973 8.55 123.473 8.55C122.906 8.55 122.34 8.58333 121.773 8.65C121.206 8.68333 120.606 8.73333 119.973 8.8L120.573 9.75Z" fill="#F94F60"/>
<path d="M148.944 20.8C148.81 22.8667 148.444 24.65 147.844 26.15C147.244 27.6167 146.377 28.9167 145.244 30.05C144.144 31.15 142.794 32.15 141.194 33.05C139.594 33.95 137.727 34.8167 135.594 35.65C135.594 35.85 135.577 36.0667 135.544 36.3C135.544 36.5 135.544 36.7167 135.544 36.95C135.544 37.3833 135.577 37.8333 135.644 38.3C135.71 38.7667 135.827 39.2 135.994 39.6C136.16 40 136.394 40.3333 136.694 40.6C136.994 40.8333 137.377 40.95 137.844 40.95C138.744 40.95 139.627 40.75 140.494 40.35C141.36 39.95 142.177 39.4667 142.944 38.9C143.744 38.3 144.477 37.6667 145.144 37C145.844 36.3 146.46 35.6667 146.994 35.1C147.327 35.4 147.61 35.6833 147.844 35.95C146.344 37.95 144.694 39.6167 142.894 40.95C141.127 42.25 139.444 43.0833 137.844 43.45C135.544 43.1833 133.744 42.35 132.444 40.95C131.177 39.5167 130.544 37.8 130.544 35.8C130.544 34.4333 130.727 33.05 131.094 31.65C131.494 30.2167 132.027 28.85 132.694 27.55C133.394 26.2167 134.194 24.9667 135.094 23.8C136.027 22.6333 137.01 21.6167 138.044 20.75C139.11 19.8833 140.194 19.2 141.294 18.7C142.427 18.2 143.544 17.95 144.644 17.95C146.177 18.15 147.61 19.1 148.944 20.8ZM145.494 22.45C144.594 22.5833 143.66 22.95 142.694 23.55C141.727 24.15 140.81 24.95 139.944 25.95C139.11 26.95 138.344 28.1167 137.644 29.45C136.944 30.7833 136.394 32.2167 135.994 33.75C138.66 32.4167 140.877 30.7833 142.644 28.85C144.41 26.8833 145.36 24.75 145.494 22.45Z" fill="#F94F60"/>
<path d="M153.667 23.8C153.667 23.2 153.7 22.6333 153.767 22.1C153.867 21.5667 154.05 21.1167 154.317 20.75C154.583 20.35 154.95 20.05 155.417 19.85C155.883 19.6167 156.5 19.5 157.267 19.5C157.733 19.5 158.25 19.55 158.817 19.65C159.417 19.75 159.85 19.9333 160.117 20.2C159.983 20.7667 159.867 21.2667 159.767 21.7C159.7 22.1333 159.633 22.6167 159.567 23.15C159.533 23.65 159.5 24.2667 159.467 25C159.433 25.7 159.4 26.6167 159.367 27.75C159.3 30.0167 159.183 32.05 159.017 33.85C158.883 35.6167 158.55 37.3833 158.017 39.15C158.017 39.2833 158.067 39.35 158.167 39.35C158.667 38.9833 159.233 38.45 159.867 37.75C160.5 37.05 161.167 36.2667 161.867 35.4C162.567 34.5 163.267 33.55 163.967 32.55C164.667 31.55 165.317 30.5667 165.917 29.6C166.717 28.2 167.6 26.45 168.567 24.35C169.533 22.25 170.333 20 170.967 17.6C171.167 17.6 171.417 17.65 171.717 17.75C172.05 17.8167 172.367 17.9167 172.667 18.05C173 18.15 173.283 18.2667 173.517 18.4C173.783 18.5333 173.967 18.65 174.067 18.75C174 20.1833 173.65 21.65 173.017 23.15C172.417 24.65 171.683 26.1 170.817 27.5C169.95 28.9 169.033 30.2167 168.067 31.45C167.1 32.6833 166.217 33.75 165.417 34.65C163.817 36.5167 162.2 38.1833 160.567 39.65C158.967 41.1167 157.05 42.5333 154.817 43.9C153.95 43.5667 153.267 43.1167 152.767 42.55C152.267 42.0167 152.017 41.45 152.017 40.85C152.017 40.45 152.1 40 152.267 39.5C152.467 38.9667 152.683 38.3 152.917 37.5C153.15 36.6667 153.35 35.6333 153.517 34.4C153.717 33.1667 153.817 31.6 153.817 29.7C153.817 28.6 153.783 27.5 153.717 26.4C153.683 25.2667 153.667 24.4 153.667 23.8Z" fill="#F94F60"/>
<path d="M191.229 20.8C191.095 22.8667 190.729 24.65 190.129 26.15C189.529 27.6167 188.662 28.9167 187.529 30.05C186.429 31.15 185.079 32.15 183.479 33.05C181.879 33.95 180.012 34.8167 177.879 35.65C177.879 35.85 177.862 36.0667 177.829 36.3C177.829 36.5 177.829 36.7167 177.829 36.95C177.829 37.3833 177.862 37.8333 177.929 38.3C177.995 38.7667 178.112 39.2 178.279 39.6C178.445 40 178.679 40.3333 178.979 40.6C179.279 40.8333 179.662 40.95 180.129 40.95C181.029 40.95 181.912 40.75 182.779 40.35C183.645 39.95 184.462 39.4667 185.229 38.9C186.029 38.3 186.762 37.6667 187.429 37C188.129 36.3 188.745 35.6667 189.279 35.1C189.612 35.4 189.895 35.6833 190.129 35.95C188.629 37.95 186.979 39.6167 185.179 40.95C183.412 42.25 181.729 43.0833 180.129 43.45C177.829 43.1833 176.029 42.35 174.729 40.95C173.462 39.5167 172.829 37.8 172.829 35.8C172.829 34.4333 173.012 33.05 173.379 31.65C173.779 30.2167 174.312 28.85 174.979 27.55C175.679 26.2167 176.479 24.9667 177.379 23.8C178.312 22.6333 179.295 21.6167 180.329 20.75C181.395 19.8833 182.479 19.2 183.579 18.7C184.712 18.2 185.829 17.95 186.929 17.95C188.462 18.15 189.895 19.1 191.229 20.8ZM187.779 22.45C186.879 22.5833 185.945 22.95 184.979 23.55C184.012 24.15 183.095 24.95 182.229 25.95C181.395 26.95 180.629 28.1167 179.929 29.45C179.229 30.7833 178.679 32.2167 178.279 33.75C180.945 32.4167 183.162 30.7833 184.929 28.85C186.695 26.8833 187.645 24.75 187.779 22.45Z" fill="#F94F60"/>
<path d="M210.794 21.3C211.127 21.3 211.51 21.3667 211.944 21.5C212.41 21.6 212.827 21.75 213.194 21.95C213.56 22.1167 213.86 22.3 214.094 22.5C214.36 22.7 214.494 22.8833 214.494 23.05C213.827 24.45 213.21 25.8667 212.644 27.3C212.077 28.7 211.594 30.05 211.194 31.35C210.794 32.65 210.477 33.8667 210.244 35C210.044 36.1333 209.944 37.1167 209.944 37.95C209.944 38.8833 210.044 39.6667 210.244 40.3C210.444 40.9 210.777 41.3333 211.244 41.6C210.844 41.8667 210.327 42.0833 209.694 42.25C209.06 42.4167 208.494 42.5 207.994 42.5C206.194 42.5 205.294 41.2667 205.294 38.8C205.294 36.9 205.927 34.3 207.194 31C206.527 32.5333 205.76 33.9833 204.894 35.35C204.027 36.6833 203.144 37.8667 202.244 38.9C201.344 39.9333 200.427 40.7833 199.494 41.45C198.594 42.0833 197.76 42.4667 196.994 42.6C195.76 42.5333 194.76 41.95 193.994 40.85C193.227 39.7167 192.844 38.2833 192.844 36.55C192.844 34.6833 193.244 32.7167 194.044 30.65C194.844 28.5833 195.86 26.6667 197.094 24.9C198.36 23.1333 199.727 21.6667 201.194 20.5C202.66 19.3 204.077 18.6667 205.444 18.6C205.777 18.7 206.144 18.9 206.544 19.2C206.977 19.5 207.377 19.85 207.744 20.25C208.144 20.65 208.477 21.0667 208.744 21.5C209.01 21.9 209.16 22.25 209.194 22.55C207.86 22.75 206.477 23.4 205.044 24.5C203.644 25.6 202.36 26.9333 201.194 28.5C200.06 30.0333 199.127 31.6833 198.394 33.45C197.66 35.2167 197.294 36.8667 197.294 38.4C197.294 39.0333 197.527 39.4333 197.994 39.6C198.96 39.4 200.077 38.5833 201.344 37.15C202.61 35.6833 204.144 33.4333 205.944 30.4C206.277 29.8 206.644 29.1333 207.044 28.4C207.477 27.6667 207.91 26.9 208.344 26.1C208.777 25.3 209.194 24.5 209.594 23.7C210.027 22.8667 210.427 22.0667 210.794 21.3Z" fill="#F94F60"/>
<path d="M216.98 38.3C216.98 36.8333 217.33 34.7833 218.03 32.15C218.73 29.4833 219.713 26.3833 220.98 22.85C223.047 17.2167 224.98 12.5333 226.78 8.8C228.613 5.03333 230.397 2.1 232.13 0C232.53 0.0666658 233.013 0.233332 233.58 0.5C234.18 0.766667 234.763 1.06667 235.33 1.4C235.897 1.7 236.397 2.01667 236.83 2.35C237.297 2.68333 237.597 2.95 237.73 3.15C235.13 6.21667 232.847 9.51667 230.88 13.05C228.913 16.5833 227.113 20.6333 225.48 25.2C224.08 29.1333 223.013 32.6833 222.28 35.85C221.547 38.9833 221.18 41.6 221.18 43.7C221.18 44.2667 221.18 44.6167 221.18 44.75C221.18 44.8833 221.197 45.0167 221.23 45.15C220.763 45.0833 220.363 44.9667 220.03 44.8C219.697 44.6333 219.48 44.4333 219.38 44.2C219.313 44.0333 219.13 43.7833 218.83 43.45C218.53 43.15 218.263 42.9167 218.03 42.75C217.73 42.55 217.48 42.0333 217.28 41.2C217.08 40.3333 216.98 39.3667 216.98 38.3Z" fill="#F94F60"/>
</svg>
