<svg width="27" height="25" viewBox="0 0 27 25" fill="none" xmlns="http://www.w3.org/2000/svg">
<path d="M14.4338 12.6852L12.3938 7.3818C12.3631 7.30221 12.3091 7.23377 12.2388 7.1855C12.1685 7.13722 12.0853 7.11138 12 7.11138C11.9147 7.11138 11.8315 7.13722 11.7612 7.1855C11.6909 7.23377 11.6369 7.30221 11.6063 7.3818L9.56625 12.6852C9.54506 12.7403 9.51254 12.7904 9.4708 12.8321C9.42905 12.8739 9.37901 12.9064 9.32391 12.9276L4.02047 14.9676C3.94088 14.9982 3.87244 15.0522 3.82417 15.1225C3.77589 15.1928 3.75005 15.2761 3.75005 15.3613C3.75005 15.4466 3.77589 15.5299 3.82417 15.6002C3.87244 15.6705 3.94088 15.7245 4.02047 15.7551L9.32391 17.7951C9.37901 17.8163 9.42905 17.8488 9.4708 17.8905C9.51254 17.9323 9.54506 17.9823 9.56625 18.0374L11.6063 23.3409C11.6369 23.4205 11.6909 23.4889 11.7612 23.5372C11.8315 23.5854 11.9147 23.6113 12 23.6113C12.0853 23.6113 12.1685 23.5854 12.2388 23.5372C12.3091 23.4889 12.3631 23.4205 12.3938 23.3409L14.4338 18.0374C14.4549 17.9823 14.4875 17.9323 14.5292 17.8905C14.571 17.8488 14.621 17.8163 14.6761 17.7951L19.9795 15.7551C20.0591 15.7245 20.1276 15.6705 20.1758 15.6002C20.2241 15.5299 20.25 15.4466 20.25 15.3613C20.25 15.2761 20.2241 15.1928 20.1758 15.1225C20.1276 15.0522 20.0591 14.9982 19.9795 14.9676L14.6761 12.9276C14.621 12.9064 14.571 12.8739 14.5292 12.8321C14.4875 12.7904 14.4549 12.7403 14.4338 12.6852ZM7.3125 3.54883L6.375 1.11133L5.4375 3.54883L3 4.48633L5.4375 5.42383L6.375 7.86133L7.3125 5.42383L9.75 4.48633L7.3125 3.54883ZM22.2502 5.86117L21 2.61133L19.7498 5.86117L16.5 7.11133L19.7498 8.36149L21 11.6113L22.2502 8.36149L25.5 7.11133L22.2502 5.86117Z" stroke="#666666" stroke-width="1.5" stroke-linecap="round" stroke-linejoin="round"/>
</svg>
