<svg width="10" height="12" viewBox="0 0 10 12" fill="none" xmlns="http://www.w3.org/2000/svg">
<path fill-rule="evenodd" clip-rule="evenodd" d="M1.5 2.5C1.22386 2.5 1 2.72386 1 3V10C1 10.2761 1.22386 10.5 1.5 10.5H8.5C8.77614 10.5 9 10.2761 9 10V3C9 2.72386 8.77614 2.5 8.5 2.5H1.5ZM0 3C0 2.17157 0.671573 1.5 1.5 1.5H8.5C9.32843 1.5 10 2.17157 10 3V10C10 10.8284 9.32843 11.5 8.5 11.5H1.5C0.671573 11.5 0 10.8284 0 10V3Z" fill="#EBEBF5" fill-opacity="0.6"/>
<path fill-rule="evenodd" clip-rule="evenodd" d="M7 0.5C7.27614 0.5 7.5 0.723858 7.5 1V3C7.5 3.27614 7.27614 3.5 7 3.5C6.72386 3.5 6.5 3.27614 6.5 3V1C6.5 0.723858 6.72386 0.5 7 0.5Z" fill="#EBEBF5" fill-opacity="0.6"/>
<path fill-rule="evenodd" clip-rule="evenodd" d="M3 0.5C3.27614 0.5 3.5 0.723858 3.5 1V3C3.5 3.27614 3.27614 3.5 3 3.5C2.72386 3.5 2.5 3.27614 2.5 3V1C2.5 0.723858 2.72386 0.5 3 0.5Z" fill="#EBEBF5" fill-opacity="0.6"/>
<path fill-rule="evenodd" clip-rule="evenodd" d="M0 5C0 4.72386 0.223858 4.5 0.5 4.5H9.5C9.77614 4.5 10 4.72386 10 5C10 5.27614 9.77614 5.5 9.5 5.5H0.5C0.223858 5.5 0 5.27614 0 5Z" fill="#EBEBF5" fill-opacity="0.6"/>
</svg>
