<svg width="13" height="13" viewBox="0 0 13 13" fill="none" xmlns="http://www.w3.org/2000/svg">
<path d="M8.02308 8.52401C8.41604 8.655 8.84078 8.44263 8.97177 8.04967C9.10275 7.65671 8.89038 7.23197 8.49742 7.10099L8.02308 8.52401ZM6.2915 7.15625H5.5415C5.5415 7.47907 5.74808 7.76568 6.05433 7.86776L6.2915 7.15625ZM7.0415 4.41217C7.0415 3.99796 6.70572 3.66217 6.2915 3.66217C5.87729 3.66217 5.5415 3.99796 5.5415 4.41217H7.0415ZM8.49742 7.10099L6.52867 6.44474L6.05433 7.86776L8.02308 8.52401L8.49742 7.10099ZM7.0415 7.15625V4.41217H5.5415V7.15625H7.0415ZM10.7915 6.5C10.7915 8.98528 8.77679 11 6.2915 11V12.5C9.60521 12.5 12.2915 9.81371 12.2915 6.5H10.7915ZM6.2915 11C3.80622 11 1.7915 8.98528 1.7915 6.5H0.291504C0.291504 9.81371 2.9778 12.5 6.2915 12.5V11ZM1.7915 6.5C1.7915 4.01472 3.80622 2 6.2915 2V0.5C2.9778 0.5 0.291504 3.18629 0.291504 6.5H1.7915ZM6.2915 2C8.77679 2 10.7915 4.01472 10.7915 6.5H12.2915C12.2915 3.18629 9.60521 0.5 6.2915 0.5V2Z" fill="#FB4967"/>
</svg>
