<svg width="25" height="20" viewBox="0 0 25 20" fill="none" xmlns="http://www.w3.org/2000/svg">
<path d="M13.5 1.11133C7.70157 1.11133 3.00001 5.8082 3.00001 11.6066C2.99645 14.172 3.93565 16.6493 5.63907 18.5676C5.69064 18.6238 5.73751 18.6801 5.78907 18.7316C5.9 18.8517 6.03465 18.9475 6.18451 19.0128C6.33436 19.0782 6.49615 19.1117 6.65963 19.1112C6.82311 19.1108 6.98472 19.0764 7.13422 19.0103C7.28372 18.9441 7.41786 18.8476 7.52814 18.727C8.28822 17.9009 9.21139 17.2416 10.2393 16.7906C11.2672 16.3396 12.3775 16.1067 13.5 16.1067C14.6225 16.1067 15.7328 16.3396 16.7607 16.7906C17.7886 17.2416 18.7118 17.9009 19.4719 18.727C19.5822 18.8476 19.7163 18.9441 19.8658 19.0103C20.0153 19.0764 20.1769 19.1108 20.3404 19.1112C20.5039 19.1117 20.6657 19.0782 20.8155 19.0128C20.9654 18.9475 21.1 18.8517 21.211 18.7316L21.361 18.5676C23.0644 16.6493 24.0036 14.172 24 11.6066C24 5.8082 19.2985 1.11133 13.5 1.11133Z" stroke="#666666" stroke-linecap="round" stroke-linejoin="round"/>
<path d="M15.7556 8.98458L13.211 12.5236C13.1069 12.6499 12.9803 12.7607 12.836 12.8518C12.4877 13.0644 12.0576 13.1482 11.6391 13.0851C11.2205 13.022 10.8474 12.817 10.6005 12.5146C10.3537 12.2122 10.2531 11.8368 10.3206 11.4699C10.388 11.103 10.6182 10.7742 10.961 10.5549L15.0056 8.32833C15.0976 8.27225 15.207 8.24219 15.319 8.24219C15.4311 8.24219 15.5405 8.27225 15.6324 8.32833C15.7479 8.40128 15.8257 8.51125 15.8488 8.63421C15.8718 8.75718 15.8384 8.88314 15.7556 8.98458Z" fill="#666666"/>
<path d="M16.8491 7.37063L18.0615 6.30984M12.0004 4.11328V5.61328V4.11328ZM20.5718 11.6133H18.8575H20.5718ZM5.14324 11.6133H3.42896H5.14324ZM7.15163 7.37063L5.93931 6.30984L7.15163 7.37063Z" stroke="#666666" stroke-miterlimit="10" stroke-linecap="round"/>
</svg>
