<svg width="40" height="40" viewBox="0 0 40 40" fill="none" xmlns="http://www.w3.org/2000/svg">
<rect width="40" height="40" rx="20" fill="url(#paint0_linear_236_1509)"/>
<path fill-rule="evenodd" clip-rule="evenodd" d="M11.8065 14.2066C12.7066 13.3067 13.9273 12.8012 15.2001 12.8012C16.4729 12.8012 17.6936 13.3067 18.5937 14.2066L20.0001 15.6118L21.4065 14.2066C21.8493 13.7481 22.3789 13.3825 22.9646 13.1309C23.5502 12.8793 24.18 12.7469 24.8174 12.7414C25.4547 12.7359 26.0868 12.8573 26.6767 13.0987C27.2666 13.34 27.8025 13.6964 28.2532 14.1471C28.7039 14.5978 29.0603 15.1337 29.3016 15.7236C29.543 16.3135 29.6644 16.9456 29.6589 17.5829C29.6534 18.2203 29.5209 18.8501 29.2694 19.4357C29.0178 20.0214 28.6521 20.551 28.1937 20.9938L20.0001 29.1886L11.8065 20.9938C10.9066 20.0937 10.4011 18.873 10.4011 17.6002C10.4011 16.3274 10.9066 15.1067 11.8065 14.2066V14.2066Z" stroke="white" stroke-width="2" stroke-linejoin="round"/>
<defs>
<linearGradient id="paint0_linear_236_1509" x1="20" y1="0" x2="20" y2="40" gradientUnits="userSpaceOnUse">
<stop stop-color="#F65F51"/>
<stop offset="1" stop-color="#FB4967"/>
</linearGradient>
</defs>
</svg>
