<svg width="16" height="18" viewBox="0 0 16 18" fill="none" xmlns="http://www.w3.org/2000/svg">
<path d="M4.55413 4.28864C4.53916 4.74119 4.61347 5.19227 4.77283 5.6161C4.93218 6.03994 5.17346 6.42824 5.48287 6.75883C5.79229 7.08943 6.1638 7.35584 6.57618 7.54286C6.98856 7.72988 7.43373 7.83384 7.88629 7.84881C8.33885 7.86378 8.78992 7.78947 9.21376 7.63011C9.6376 7.47076 10.0259 7.22949 10.3565 6.92007C10.6871 6.61065 10.9535 6.23914 11.1405 5.82676C11.3275 5.41438 11.4315 4.96921 11.4465 4.51665C11.4614 4.06409 11.3871 3.61302 11.2278 3.18918C11.0684 2.76534 10.8271 2.37704 10.5177 2.04645C10.2083 1.71586 9.8368 1.44945 9.42442 1.26243C9.01204 1.07541 8.56686 0.971447 8.11431 0.956475C7.66175 0.941504 7.21067 1.01582 6.78684 1.17517C6.363 1.33452 5.9747 1.5758 5.64411 1.88522C5.31351 2.19464 5.0471 2.56614 4.86008 2.97852C4.67307 3.3909 4.5691 3.83608 4.55413 4.28864Z" stroke="#111111" stroke-width="1.5" stroke-linecap="round" stroke-linejoin="round"/>
<path d="M14.8962 17.0454C14.3313 15.6846 13.3745 14.5214 12.147 13.7031C10.9195 12.8848 9.47641 12.448 8.00011 12.448C6.52381 12.448 5.08067 12.8848 3.85317 13.7031C2.62568 14.5214 1.66896 15.6846 1.104 17.0454" stroke="#111111" stroke-width="1.5" stroke-linecap="round" stroke-linejoin="round"/>
</svg>
