<svg width="24" height="22" viewBox="0 0 24 22" fill="none" xmlns="http://www.w3.org/2000/svg">
<path fill-rule="evenodd" clip-rule="evenodd" d="M2.60548 3.5577C3.63378 2.51899 5.02826 1.93548 6.48228 1.93548C7.93629 1.93548 9.33078 2.51899 10.3591 3.5577L11.9657 5.17972L13.5724 3.5577C14.0782 3.02852 14.6833 2.60642 15.3523 2.31604C16.0213 2.02566 16.7408 1.87281 17.4689 1.86642C18.197 1.86003 18.919 2.00022 19.5929 2.2788C20.2668 2.55739 20.8791 2.9688 21.3939 3.48903C21.9088 4.00925 22.316 4.62788 22.5917 5.3088C22.8674 5.98972 23.0061 6.71931 22.9998 7.455C22.9935 8.19068 22.8422 8.91772 22.5548 9.5937C22.2674 10.2697 21.8497 10.8811 21.326 11.3922L11.9657 20.8514L2.60548 11.3922C1.57749 10.3531 1 8.94411 1 7.47494C1 6.00576 1.57749 4.59673 2.60548 3.5577Z" stroke="#FB4967" stroke-width="2" stroke-linejoin="round"/>
</svg>
