<svg width="21" height="18" viewBox="0 0 21 18" fill="none" xmlns="http://www.w3.org/2000/svg">
<path fill-rule="evenodd" clip-rule="evenodd" d="M2.27647 2.24175C3.1766 1.34189 4.39728 0.836375 5.67007 0.836375C6.94286 0.836375 8.16353 1.34189 9.06367 2.24175L10.4701 3.64695L11.8765 2.24175C12.3193 1.7833 12.8489 1.41763 13.4345 1.16606C14.0201 0.9145 14.65 0.782087 15.2873 0.776548C15.9247 0.77101 16.5567 0.892458 17.1466 1.13381C17.7365 1.37515 18.2725 1.73157 18.7232 2.18225C19.1738 2.63294 19.5303 3.16887 19.7716 3.75877C20.013 4.34867 20.1344 4.98074 20.1289 5.61808C20.1233 6.25542 19.9909 6.88527 19.7394 7.47089C19.4878 8.05651 19.1221 8.58617 18.6637 9.02895L10.4701 17.2237L2.27647 9.02895C1.37661 8.12882 0.871094 6.90814 0.871094 5.63535C0.871094 4.36256 1.37661 3.14188 2.27647 2.24175V2.24175Z" stroke="#FB4967" stroke-width="1.5" stroke-linejoin="round"/>
</svg>
