<svg width="16" height="16" viewBox="0 0 16 16" fill="none" xmlns="http://www.w3.org/2000/svg">
<g id="heart">
<path id="Icon" fill-rule="evenodd" clip-rule="evenodd" d="M2.5375 4.13757C3.13759 3.53766 3.95138 3.20065 4.7999 3.20065C5.64843 3.20065 6.46221 3.53766 7.0623 4.13757L7.9999 5.07437L8.9375 4.13757C9.23269 3.83193 9.58579 3.58815 9.97621 3.42044C10.3666 3.25273 10.7865 3.16446 11.2114 3.16077C11.6363 3.15707 12.0577 3.23804 12.451 3.39894C12.8442 3.55984 13.2015 3.79745 13.502 4.0979C13.8024 4.39836 14.04 4.75565 14.2009 5.14891C14.3618 5.54218 14.4428 5.96356 14.4391 6.38845C14.4354 6.81334 14.3471 7.23325 14.1794 7.62366C14.0117 8.01407 13.7679 8.36718 13.4623 8.66237L7.9999 14.1256L2.5375 8.66237C1.9376 8.06228 1.60059 7.24849 1.60059 6.39997C1.60059 5.55144 1.9376 4.73766 2.5375 4.13757Z" fill="white" stroke="white" stroke-width="1.5" stroke-linejoin="round"/>
</g>
</svg>
