<svg width="22" height="22" viewBox="0 0 22 22" fill="none" xmlns="http://www.w3.org/2000/svg">
<path d="M14.7994 11.8093L14.2539 10.9713L14.2399 10.9803L14.2263 10.9899L14.7994 11.8093ZM14.7994 10.4332L14.2065 11.2384L14.2511 11.2712L14.2991 11.299L14.7994 10.4332ZM9.28402 6.37187L9.87697 5.56662L9.84875 5.54585L9.81915 5.52709L9.28402 6.37187ZM8.12775 6.97847L9.12775 6.97557L9.12772 6.96682L9.12754 6.95807L8.12775 6.97847ZM8.15088 14.9562L7.15088 14.9591L7.15096 14.9874L7.15264 15.0156L8.15088 14.9562ZM9.34954 15.621L9.83376 16.4959L9.87967 16.4705L9.92268 16.4405L9.34954 15.621ZM5.2 2.3999H17.2V0.399902H5.2V2.3999ZM19.8 4.9999V16.9999H21.8V4.9999H19.8ZM17.2 19.5999H5.2V21.5999H17.2V19.5999ZM2.6 16.9999V4.9999H0.599998V16.9999H2.6ZM5.2 19.5999C3.76406 19.5999 2.6 18.4358 2.6 16.9999H0.599998C0.599998 19.5404 2.65949 21.5999 5.2 21.5999V19.5999ZM19.8 16.9999C19.8 18.4358 18.6359 19.5999 17.2 19.5999V21.5999C19.7405 21.5999 21.8 19.5404 21.8 16.9999H19.8ZM17.2 2.3999C18.6359 2.3999 19.8 3.56396 19.8 4.9999H21.8C21.8 2.45939 19.7405 0.399902 17.2 0.399902V2.3999ZM5.2 0.399902C2.65949 0.399902 0.599998 2.45939 0.599998 4.9999H2.6C2.6 3.56396 3.76406 2.3999 5.2 2.3999V0.399902ZM15.345 12.6474C15.7794 12.3646 16.3285 11.8602 16.3275 11.1C16.3264 10.3173 15.7492 9.82704 15.2998 9.56734L14.2991 11.299C14.4037 11.3595 14.423 11.3909 14.4084 11.3723C14.3868 11.3448 14.3277 11.2501 14.3275 11.1027C14.3273 10.9591 14.3834 10.8745 14.3921 10.8627C14.3964 10.8569 14.3656 10.8985 14.2539 10.9713L15.345 12.6474ZM15.3924 9.62791L9.87697 5.56662L8.69108 7.17711L14.2065 11.2384L15.3924 9.62791ZM9.81915 5.52709C9.34854 5.22898 8.68766 5.05818 8.06264 5.35001C7.38239 5.66763 7.11475 6.35185 7.12796 6.99888L9.12754 6.95807C9.12635 6.89951 9.13853 6.91844 9.10778 6.97728C9.07313 7.04359 9.00543 7.11708 8.90878 7.1622C8.72283 7.24903 8.6478 7.1526 8.7489 7.21664L9.81915 5.52709ZM7.12776 6.98137L7.15088 14.9591L9.15087 14.9533L9.12775 6.97557L7.12776 6.98137ZM7.15264 15.0156C7.18445 15.5499 7.3702 16.2622 8.04063 16.6203C8.70073 16.9728 9.38798 16.7426 9.83376 16.4959L8.86533 14.746C8.76621 14.8009 8.72724 14.804 8.7429 14.8018C8.76655 14.7985 8.86421 14.7928 8.98283 14.8561C9.10311 14.9204 9.15517 15.0077 9.16778 15.0346C9.1761 15.0523 9.15633 15.018 9.14911 14.8968L7.15264 15.0156ZM9.92268 16.4405L15.3726 12.6288L14.2263 10.9899L8.77641 14.8015L9.92268 16.4405Z" fill="black"/>
</svg>
