<svg width="19" height="22" viewBox="0 0 19 22" fill="none" xmlns="http://www.w3.org/2000/svg">
<path d="M7 20.3999H4.6C2.61177 20.3999 1 18.8049 1 16.8374V4.9624C1 2.99489 2.61178 1.3999 4.6 1.3999H13C14.9882 1.3999 16.6 2.99489 16.6 4.9624V7.93115M12.4 13.8687V12.6812C12.4 11.6974 13.2059 10.8999 14.2 10.8999C15.1941 10.8999 16 11.6974 16 12.6812V14.4624M11.8 20.3999H16.6C17.2627 20.3999 17.8 19.8682 17.8 19.2124V15.6499C17.8 14.9941 17.2627 14.4624 16.6 14.4624H11.8C11.1373 14.4624 10.6 14.9941 10.6 15.6499V19.2124C10.6 19.8682 11.1373 20.3999 11.8 20.3999Z" stroke="black" stroke-width="1.5" stroke-linecap="round" stroke-linejoin="round"/>
</svg>
