<svg width="24" height="25" viewBox="0 0 24 25" fill="none" xmlns="http://www.w3.org/2000/svg">
<path d="M9 8.35889V6.48389C9 5.98661 9.19754 5.50969 9.54917 5.15806C9.90081 4.80643 10.3777 4.60889 10.875 4.60889H18.375C18.8723 4.60889 19.3492 4.80643 19.7008 5.15806C20.0525 5.50969 20.25 5.98661 20.25 6.48389V17.7339C20.25 18.2312 20.0525 18.7081 19.7008 19.0597C19.3492 19.4113 18.8723 19.6089 18.375 19.6089H11.25C10.2145 19.6089 9 18.7694 9 17.7339V15.8589" stroke="#666666" stroke-width="1.5" stroke-linecap="round" stroke-linejoin="round"/>
<path d="M13.5002 15.8589L17.2502 12.1089L13.5002 8.35889M3.75024 12.1089H16.5002" stroke="#666666" stroke-width="1.5" stroke-linecap="round" stroke-linejoin="round"/>
</svg>
