<svg width="25" height="24" viewBox="0 0 25 24" fill="none" xmlns="http://www.w3.org/2000/svg">
<path d="M4.30559 16.5624L3.68309 16.1441L3.68309 16.1441L4.30559 16.5624ZM5.46856 12.835L4.71856 12.8269V12.835H5.46856ZM5.49297 10.5814L6.24297 10.5895V10.5814H5.49297ZM20.1007 16.5805L20.7311 16.1743L20.7311 16.1742L20.1007 16.5805ZM18.9814 12.835L18.2314 12.8265V12.835H18.9814ZM19.0058 10.6931L19.7558 10.7016V10.6931H19.0058ZM9.53335 20.25C9.11913 20.25 8.78335 20.5858 8.78335 21C8.78335 21.4142 9.11913 21.75 9.53335 21.75V20.25ZM14.8667 21.75C15.2809 21.75 15.6167 21.4142 15.6167 21C15.6167 20.5858 15.2809 20.25 14.8667 20.25V21.75ZM4.92808 16.9808C5.58021 16.0104 6.21856 14.5755 6.21856 12.835H4.71856C4.71856 14.2051 4.21453 15.3533 3.68309 16.1441L4.92808 16.9808ZM6.21852 12.8431L6.24293 10.5895L4.74302 10.5733L4.71861 12.8269L6.21852 12.8431ZM20.7311 16.1742C20.2214 15.3833 19.7314 14.2239 19.7314 12.835H18.2314C18.2314 14.5781 18.8445 16.0159 19.4702 16.9868L20.7311 16.1742ZM19.7314 12.8436L19.7558 10.7016L18.2559 10.6845L18.2315 12.8265L19.7314 12.8436ZM19.7558 10.6931C19.7558 6.11911 16.4567 2.25 12.2 2.25V3.75C15.4608 3.75 18.2558 6.7695 18.2558 10.6931H19.7558ZM19.6934 18.375C20.3472 18.375 20.7125 17.8669 20.847 17.5097C20.9879 17.1356 21.0142 16.6136 20.7311 16.1743L19.4702 16.9868C19.4481 16.9525 19.4495 16.9326 19.45 16.942C19.4504 16.9513 19.4484 16.9673 19.4432 16.9811C19.4372 16.9969 19.4383 16.9818 19.4694 16.9543C19.5063 16.9215 19.5849 16.875 19.6934 16.875V18.375ZM6.24297 10.5814C6.24297 6.7195 8.99377 3.75 12.2 3.75V2.25C7.99787 2.25 4.74297 6.06912 4.74297 10.5814H6.24297ZM4.70765 16.875C4.81865 16.875 4.89806 16.9234 4.93409 16.956C4.96419 16.9832 4.964 16.9969 4.95736 16.9787C4.95151 16.9627 4.94948 16.9448 4.95012 16.9345C4.95076 16.924 4.95213 16.945 4.92808 16.9808L3.68309 16.1441C3.3867 16.5851 3.41062 17.1161 3.54839 17.4933C3.67938 17.852 4.04352 18.375 4.70765 18.375V16.875ZM19.6934 16.875H4.70765V18.375H19.6934V16.875ZM9.53335 21.75H14.8667V20.25H9.53335V21.75Z" fill="#111111"/>
<circle cx="15.7" cy="3.5" r="2.5" fill="#FB4967"/>
</svg>
