<svg width="21" height="21" viewBox="0 0 21 21" fill="none" xmlns="http://www.w3.org/2000/svg">
<path d="M6.9375 13.8101L14.0625 6.69069M7.48563 7.23389L7.47163 7.21976M13.5325 13.3382L13.5185 13.324M8.10121 2.38223L6.18354 1.96236C5.87713 1.89527 5.57003 2.07244 5.47497 2.37113L4.88004 4.24053C4.82033 4.42816 4.67321 4.57517 4.48543 4.63483L2.61457 5.2293C2.31566 5.32429 2.13835 5.63115 2.20549 5.93731L2.62569 7.8535C2.66786 8.04582 2.61401 8.24664 2.48125 8.39212L1.15851 9.84165C0.947164 10.0733 0.947164 10.4276 1.15851 10.6592L2.48125 12.1087C2.61401 12.2542 2.66786 12.455 2.62569 12.6473L2.20549 14.5635C2.13835 14.8697 2.31566 15.1766 2.61457 15.2715L4.48543 15.866C4.67321 15.9257 4.82033 16.0727 4.88004 16.2603L5.47497 18.1297C5.57003 18.4284 5.87713 18.6056 6.18354 18.5385L8.10121 18.1186C8.29368 18.0765 8.49466 18.1303 8.64026 18.2629L10.0909 19.5846C10.3227 19.7958 10.6773 19.7958 10.9091 19.5846L12.3597 18.2629C12.5053 18.1303 12.7063 18.0765 12.8988 18.1186L14.8165 18.5385C15.1229 18.6056 15.43 18.4284 15.525 18.1297L16.12 16.2603C16.1797 16.0727 16.3268 15.9257 16.5146 15.866L18.3854 15.2715C18.6843 15.1766 18.8617 14.8697 18.7945 14.5635L18.3743 12.6473C18.3321 12.455 18.386 12.2542 18.5188 12.1087L19.8415 10.6592C20.0528 10.4276 20.0528 10.0733 19.8415 9.84165L18.5188 8.39212C18.386 8.24664 18.3321 8.04582 18.3743 7.8535L18.7945 5.93731C18.8617 5.63115 18.6843 5.32429 18.3854 5.2293L16.5146 4.63483C16.3268 4.57517 16.1797 4.42816 16.12 4.24053L15.525 2.37113C15.43 2.07244 15.1229 1.89527 14.8165 1.96236L12.8988 2.38223C12.7063 2.42438 12.5053 2.37057 12.3597 2.23791L10.9091 0.916197C10.6773 0.705018 10.3227 0.705018 10.0909 0.916197L8.64026 2.23791C8.49466 2.37057 8.29368 2.42438 8.10121 2.38223Z" stroke="#FB4967" stroke-width="1.5" stroke-linecap="round"/>
</svg>
