<svg width="19" height="21" viewBox="0 0 19 21" fill="none" xmlns="http://www.w3.org/2000/svg">
<path fill-rule="evenodd" clip-rule="evenodd" d="M6.94214 2.55591C7.54596 1.95208 8.36462 1.61239 9.21856 1.61133C10.0727 1.61212 10.8916 1.9517 11.4956 2.55555C12.0997 3.15941 12.4395 3.97822 12.4406 4.83233V5.11133C12.4406 5.96572 12.1012 6.78512 11.497 7.38927C10.8929 7.99342 10.0735 8.33283 9.21906 8.33283C8.36466 8.33283 7.54526 7.99342 6.94111 7.38927C6.33697 6.78512 5.99756 5.96572 5.99756 5.11133V4.83233C5.99862 3.97839 6.33831 3.15973 6.94214 2.55591ZM11.0255 0.470406C10.4526 0.233212 9.83861 0.111197 9.21856 0.111328C7.96647 0.111328 6.76567 0.608718 5.88031 1.49408C4.99495 2.37944 4.49756 3.58024 4.49756 4.83233V5.11133C4.49756 6.36355 4.995 7.56448 5.88045 8.44993C6.76591 9.33539 7.96684 9.83283 9.21906 9.83283C10.4713 9.83283 11.6722 9.33539 12.5577 8.44993C13.4431 7.56448 13.9406 6.36355 13.9406 5.11133V4.83233C13.9406 4.21227 13.8184 3.59829 13.5811 3.02545C13.3438 2.45261 12.9959 1.93212 12.5575 1.49372C12.119 1.05533 11.5984 0.7076 11.0255 0.470406ZM0.230291 19.9391C0.370943 20.0797 0.561652 20.1588 0.760564 20.1588C0.959477 20.1588 1.15019 20.0797 1.29084 19.9391C1.43149 19.7984 1.51056 19.6077 1.51056 19.4088C1.51056 15.1898 4.17059 13.0508 9.41559 13.0508C14.4746 13.0508 16.9337 15.0728 16.9337 19.2328C16.9337 19.4317 17.0125 19.6225 17.1531 19.7632C17.2938 19.9038 17.4847 19.9828 17.6837 19.9828C17.8826 19.9828 18.0733 19.9038 18.2139 19.7632C18.3546 19.6225 18.4337 19.4317 18.4337 19.2328C18.4882 18.2457 18.3418 17.2579 18.0037 16.3289C17.6656 15.3999 17.1428 14.549 16.4666 13.8278C14.9466 12.3168 12.5746 11.5508 9.41559 11.5508C6.21959 11.5508 3.78952 12.3047 2.18952 13.7917C1.44887 14.52 0.871591 15.3976 0.495916 16.366C0.120241 17.3344 -0.0451965 18.3716 0.0105645 19.4088C0.0105645 19.6077 0.0896387 19.7984 0.230291 19.9391Z" fill="#666666"/>
</svg>
