<svg width="24" height="21" viewBox="0 0 24 21" fill="none" xmlns="http://www.w3.org/2000/svg">
<path fill-rule="evenodd" clip-rule="evenodd" d="M11.9421 2.55591C12.546 1.95208 13.3646 1.61239 14.2186 1.61133C15.0727 1.61212 15.8916 1.9517 16.4956 2.55555C17.0997 3.15941 17.4395 3.97822 17.4406 4.83233V5.11133C17.4406 5.96572 17.1012 6.78512 16.497 7.38927C15.8929 7.99342 15.0735 8.33283 14.2191 8.33283C13.3647 8.33283 12.5453 7.99342 11.9411 7.38927C11.337 6.78512 10.9976 5.96572 10.9976 5.11133V4.83233C10.9986 3.97839 11.3383 3.15973 11.9421 2.55591ZM16.0255 0.470406C15.4526 0.233212 14.8386 0.111197 14.2186 0.111328C12.9665 0.111328 11.7657 0.608718 10.8803 1.49408C9.99495 2.37944 9.49756 3.58024 9.49756 4.83233V5.11133C9.49756 6.36355 9.995 7.56448 10.8805 8.44993C11.7659 9.33539 12.9668 9.83283 14.2191 9.83283C15.4713 9.83283 16.6722 9.33539 17.5577 8.44993C18.4431 7.56448 18.9406 6.36355 18.9406 5.11133V4.83233C18.9406 4.21227 18.8184 3.59829 18.5811 3.02545C18.3438 2.45261 17.9959 1.93212 17.5575 1.49372C17.119 1.05533 16.5984 0.7076 16.0255 0.470406ZM5.23029 19.9391C5.37094 20.0797 5.56165 20.1588 5.76056 20.1588C5.95948 20.1588 6.15019 20.0797 6.29084 19.9391C6.43149 19.7984 6.51056 19.6077 6.51056 19.4088C6.51056 15.1898 9.17059 13.0508 14.4156 13.0508C19.4746 13.0508 21.9337 15.0728 21.9337 19.2328C21.9337 19.4317 22.0125 19.6225 22.1531 19.7632C22.2938 19.9038 22.4847 19.9828 22.6837 19.9828C22.8826 19.9828 23.0733 19.9038 23.2139 19.7632C23.3546 19.6225 23.4337 19.4317 23.4337 19.2328C23.4882 18.2457 23.3418 17.2579 23.0037 16.3289C22.6656 15.3999 22.1428 14.549 21.4666 13.8278C19.9466 12.3168 17.5746 11.5508 14.4156 11.5508C11.2196 11.5508 8.78952 12.3047 7.18952 13.7917C6.44887 14.52 5.87159 15.3976 5.49592 16.366C5.12024 17.3344 4.9548 18.3716 5.01056 19.4088C5.01056 19.6077 5.08964 19.7984 5.23029 19.9391Z" fill="#666666"/>
</svg>
