<svg width="25" height="25" viewBox="0 0 25 25" fill="none" xmlns="http://www.w3.org/2000/svg">
<path d="M12.4338 12.6852L10.3938 7.3818C10.3631 7.30221 10.3091 7.23377 10.2388 7.1855C10.1685 7.13722 10.0853 7.11138 10 7.11138C9.91473 7.11138 9.83146 7.13722 9.76117 7.1855C9.69088 7.23377 9.63687 7.30221 9.60625 7.3818L7.56625 12.6852C7.54506 12.7403 7.51254 12.7904 7.4708 12.8321C7.42905 12.8739 7.37901 12.9064 7.32391 12.9276L2.02047 14.9676C1.94088 14.9982 1.87244 15.0522 1.82417 15.1225C1.77589 15.1928 1.75005 15.2761 1.75005 15.3613C1.75005 15.4466 1.77589 15.5299 1.82417 15.6002C1.87244 15.6705 1.94088 15.7245 2.02047 15.7551L7.32391 17.7951C7.37901 17.8163 7.42905 17.8488 7.4708 17.8905C7.51254 17.9323 7.54506 17.9823 7.56625 18.0374L9.60625 23.3409C9.63687 23.4205 9.69088 23.4889 9.76117 23.5372C9.83146 23.5854 9.91473 23.6113 10 23.6113C10.0853 23.6113 10.1685 23.5854 10.2388 23.5372C10.3091 23.4889 10.3631 23.4205 10.3938 23.3409L12.4338 18.0374C12.4549 17.9823 12.4875 17.9323 12.5292 17.8905C12.571 17.8488 12.621 17.8163 12.6761 17.7951L17.9795 15.7551C18.0591 15.7245 18.1276 15.6705 18.1758 15.6002C18.2241 15.5299 18.25 15.4466 18.25 15.3613C18.25 15.2761 18.2241 15.1928 18.1758 15.1225C18.1276 15.0522 18.0591 14.9982 17.9795 14.9676L12.6761 12.9276C12.621 12.9064 12.571 12.8739 12.5292 12.8321C12.4875 12.7904 12.4549 12.7403 12.4338 12.6852ZM5.3125 3.54883L4.375 1.11133L3.4375 3.54883L1 4.48633L3.4375 5.42383L4.375 7.86133L5.3125 5.42383L7.75 4.48633L5.3125 3.54883ZM20.2502 5.86117L19 2.61133L17.7498 5.86117L14.5 7.11133L17.7498 8.36149L19 11.6113L20.2502 8.36149L23.5 7.11133L20.2502 5.86117Z" stroke="#666666" stroke-width="1.5" stroke-linecap="round" stroke-linejoin="round"/>
</svg>
